<?xml version="1.0" encoding="UTF-8"?>
<svg xmlns="http://www.w3.org/2000/svg" xmlns:xlink="http://www.w3.org/1999/xlink" width="3840" height="2160" viewBox="0 0 3840 2160">
<defs>
<linearGradient id="linear-pattern-0" gradientUnits="userSpaceOnUse" x1="0.00170975" y1="0" x2="1.038354" y2="0" gradientTransform="matrix(3568.34, 2294.98, -2294.98, 3568.34, 64.3473, -113.46)">
<stop offset="0" stop-color="rgb(92.930603%, 7.662964%, 36.347961%)" stop-opacity="1"/>
<stop offset="0.0625" stop-color="rgb(92.930603%, 7.643127%, 36.428833%)" stop-opacity="1"/>
<stop offset="0.0703125" stop-color="rgb(92.929077%, 7.611084%, 36.560059%)" stop-opacity="1"/>
<stop offset="0.078125" stop-color="rgb(92.927551%, 7.58667%, 36.659241%)" stop-opacity="1"/>
<stop offset="0.09375" stop-color="rgb(92.927551%, 7.556152%, 36.778259%)" stop-opacity="1"/>
<stop offset="0.109375" stop-color="rgb(92.91687%, 7.420349%, 36.875916%)" stop-opacity="1"/>
<stop offset="0.117188" stop-color="rgb(92.901611%, 7.21283%, 36.940002%)" stop-opacity="1"/>
<stop offset="0.125" stop-color="rgb(92.895508%, 7.113647%, 37.023926%)" stop-opacity="1"/>
<stop offset="0.132813" stop-color="rgb(92.893982%, 7.089233%, 37.124634%)" stop-opacity="1"/>
<stop offset="0.140625" stop-color="rgb(92.893982%, 7.063293%, 37.225342%)" stop-opacity="1"/>
<stop offset="0.148438" stop-color="rgb(92.892456%, 7.038879%, 37.324524%)" stop-opacity="1"/>
<stop offset="0.15625" stop-color="rgb(92.889404%, 6.973267%, 37.416077%)" stop-opacity="1"/>
<stop offset="0.164063" stop-color="rgb(92.875671%, 6.796265%, 37.484741%)" stop-opacity="1"/>
<stop offset="0.167969" stop-color="rgb(92.863464%, 6.620789%, 37.591553%)" stop-opacity="1"/>
<stop offset="0.171875" stop-color="rgb(92.860413%, 6.567383%, 37.669373%)" stop-opacity="1"/>
<stop offset="0.175781" stop-color="rgb(92.860413%, 6.542969%, 37.768555%)" stop-opacity="1"/>
<stop offset="0.179688" stop-color="rgb(92.858887%, 6.517029%, 37.867737%)" stop-opacity="1"/>
<stop offset="0.183594" stop-color="rgb(92.857361%, 6.491089%, 37.966919%)" stop-opacity="1"/>
<stop offset="0.1875" stop-color="rgb(92.857361%, 6.466675%, 38.067627%)" stop-opacity="1"/>
<stop offset="0.191406" stop-color="rgb(92.855835%, 6.440735%, 38.166809%)" stop-opacity="1"/>
<stop offset="0.195313" stop-color="rgb(92.855835%, 6.416321%, 38.265991%)" stop-opacity="1"/>
<stop offset="0.199219" stop-color="rgb(92.854309%, 6.390381%, 38.365173%)" stop-opacity="1"/>
<stop offset="0.203125" stop-color="rgb(92.852783%, 6.365967%, 38.464355%)" stop-opacity="1"/>
<stop offset="0.207031" stop-color="rgb(92.852783%, 6.330872%, 38.601685%)" stop-opacity="1"/>
<stop offset="0.210938" stop-color="rgb(92.851257%, 6.295776%, 38.737488%)" stop-opacity="1"/>
<stop offset="0.214844" stop-color="rgb(92.849731%, 6.260681%, 38.877869%)" stop-opacity="1"/>
<stop offset="0.21875" stop-color="rgb(92.848206%, 6.22406%, 39.016724%)" stop-opacity="1"/>
<stop offset="0.226563" stop-color="rgb(92.848206%, 6.211853%, 39.067078%)" stop-opacity="1"/>
<stop offset="0.230469" stop-color="rgb(92.84668%, 6.175232%, 39.21051%)" stop-opacity="1"/>
<stop offset="0.234375" stop-color="rgb(92.845154%, 6.152344%, 39.305115%)" stop-opacity="1"/>
<stop offset="0.238281" stop-color="rgb(92.843628%, 6.114197%, 39.453125%)" stop-opacity="1"/>
<stop offset="0.242188" stop-color="rgb(92.843628%, 6.07605%, 39.602661%)" stop-opacity="1"/>
<stop offset="0.246094" stop-color="rgb(92.834473%, 5.960083%, 39.692688%)" stop-opacity="1"/>
<stop offset="0.25" stop-color="rgb(92.826843%, 5.844116%, 39.781189%)" stop-opacity="1"/>
<stop offset="0.253906" stop-color="rgb(92.819214%, 5.718994%, 39.86969%)" stop-opacity="1"/>
<stop offset="0.257813" stop-color="rgb(92.810059%, 5.593872%, 39.959717%)" stop-opacity="1"/>
<stop offset="0.261719" stop-color="rgb(92.808533%, 5.543518%, 40.156555%)" stop-opacity="1"/>
<stop offset="0.265625" stop-color="rgb(92.807007%, 5.491638%, 40.354919%)" stop-opacity="1"/>
<stop offset="0.269531" stop-color="rgb(92.800903%, 5.387878%, 40.539551%)" stop-opacity="1"/>
<stop offset="0.273438" stop-color="rgb(92.7948%, 5.282593%, 40.722656%)" stop-opacity="1"/>
<stop offset="0.277344" stop-color="rgb(92.784119%, 5.119324%, 40.892029%)" stop-opacity="1"/>
<stop offset="0.28125" stop-color="rgb(92.773438%, 4.956055%, 41.059875%)" stop-opacity="1"/>
<stop offset="0.285156" stop-color="rgb(92.770386%, 4.896545%, 41.210938%)" stop-opacity="1"/>
<stop offset="0.289063" stop-color="rgb(92.767334%, 4.837036%, 41.362%)" stop-opacity="1"/>
<stop offset="0.292969" stop-color="rgb(92.750549%, 4.779053%, 41.513062%)" stop-opacity="1"/>
<stop offset="0.296875" stop-color="rgb(92.730713%, 4.722595%, 41.664124%)" stop-opacity="1"/>
<stop offset="0.300781" stop-color="rgb(92.634583%, 4.577637%, 41.836548%)" stop-opacity="1"/>
<stop offset="0.304688" stop-color="rgb(92.5354%, 4.432678%, 42.00592%)" stop-opacity="1"/>
<stop offset="0.308594" stop-color="rgb(92.350769%, 4.373169%, 42.172241%)" stop-opacity="1"/>
<stop offset="0.3125" stop-color="rgb(92.166138%, 4.315186%, 42.337036%)" stop-opacity="1"/>
<stop offset="0.316406" stop-color="rgb(91.902161%, 4.333496%, 42.498779%)" stop-opacity="1"/>
<stop offset="0.320313" stop-color="rgb(91.638184%, 4.351807%, 42.660522%)" stop-opacity="1"/>
<stop offset="0.324219" stop-color="rgb(91.442871%, 4.246521%, 42.831421%)" stop-opacity="1"/>
<stop offset="0.328125" stop-color="rgb(91.246033%, 4.141235%, 43.002319%)" stop-opacity="1"/>
<stop offset="0.332031" stop-color="rgb(91.062927%, 4.039001%, 43.190002%)" stop-opacity="1"/>
<stop offset="0.335938" stop-color="rgb(90.878296%, 3.936768%, 43.377686%)" stop-opacity="1"/>
<stop offset="0.339844" stop-color="rgb(90.701294%, 3.912354%, 43.630981%)" stop-opacity="1"/>
<stop offset="0.34375" stop-color="rgb(90.522766%, 3.887939%, 43.881226%)" stop-opacity="1"/>
<stop offset="0.347656" stop-color="rgb(90.296936%, 3.881836%, 44.108582%)" stop-opacity="1"/>
<stop offset="0.351563" stop-color="rgb(90.06958%, 3.877258%, 44.335938%)" stop-opacity="1"/>
<stop offset="0.355469" stop-color="rgb(89.804077%, 3.886414%, 44.541931%)" stop-opacity="1"/>
<stop offset="0.359375" stop-color="rgb(89.538574%, 3.895569%, 44.749451%)" stop-opacity="1"/>
<stop offset="0.363281" stop-color="rgb(89.266968%, 3.793335%, 44.969177%)" stop-opacity="1"/>
<stop offset="0.367188" stop-color="rgb(88.995361%, 3.691101%, 45.185852%)" stop-opacity="1"/>
<stop offset="0.371094" stop-color="rgb(88.700867%, 3.608704%, 45.425415%)" stop-opacity="1"/>
<stop offset="0.375" stop-color="rgb(88.406372%, 3.52478%, 45.663452%)" stop-opacity="1"/>
<stop offset="0.378906" stop-color="rgb(88.053894%, 3.53241%, 45.968628%)" stop-opacity="1"/>
<stop offset="0.382813" stop-color="rgb(87.698364%, 3.540039%, 46.273804%)" stop-opacity="1"/>
<stop offset="0.386719" stop-color="rgb(87.44812%, 3.523254%, 46.572876%)" stop-opacity="1"/>
<stop offset="0.390625" stop-color="rgb(87.197876%, 3.507996%, 46.871948%)" stop-opacity="1"/>
<stop offset="0.394531" stop-color="rgb(87.019348%, 3.475952%, 47.166443%)" stop-opacity="1"/>
<stop offset="0.398438" stop-color="rgb(86.839294%, 3.443909%, 47.462463%)" stop-opacity="1"/>
<stop offset="0.402344" stop-color="rgb(86.494446%, 3.463745%, 47.718811%)" stop-opacity="1"/>
<stop offset="0.40625" stop-color="rgb(86.149597%, 3.483582%, 47.976685%)" stop-opacity="1"/>
<stop offset="0.410156" stop-color="rgb(85.794067%, 3.503418%, 48.245239%)" stop-opacity="1"/>
<stop offset="0.414063" stop-color="rgb(85.438538%, 3.523254%, 48.513794%)" stop-opacity="1"/>
<stop offset="0.417969" stop-color="rgb(85.083008%, 3.535461%, 48.815918%)" stop-opacity="1"/>
<stop offset="0.421875" stop-color="rgb(84.727478%, 3.549194%, 49.116516%)" stop-opacity="1"/>
<stop offset="0.425781" stop-color="rgb(84.371948%, 3.570557%, 49.386597%)" stop-opacity="1"/>
<stop offset="0.429688" stop-color="rgb(84.014893%, 3.591919%, 49.656677%)" stop-opacity="1"/>
<stop offset="0.433594" stop-color="rgb(83.659363%, 3.619385%, 49.909973%)" stop-opacity="1"/>
<stop offset="0.4375" stop-color="rgb(83.302307%, 3.646851%, 50.161743%)" stop-opacity="1"/>
<stop offset="0.441406" stop-color="rgb(82.948303%, 3.672791%, 50.413513%)" stop-opacity="1"/>
<stop offset="0.445313" stop-color="rgb(82.591248%, 3.701782%, 50.665283%)" stop-opacity="1"/>
<stop offset="0.449219" stop-color="rgb(82.2052%, 3.729248%, 50.949097%)" stop-opacity="1"/>
<stop offset="0.453125" stop-color="rgb(81.819153%, 3.75824%, 51.231384%)" stop-opacity="1"/>
<stop offset="0.457031" stop-color="rgb(81.37207%, 3.787231%, 51.580811%)" stop-opacity="1"/>
<stop offset="0.460938" stop-color="rgb(80.924988%, 3.817749%, 51.928711%)" stop-opacity="1"/>
<stop offset="0.464844" stop-color="rgb(80.53894%, 3.848267%, 52.209473%)" stop-opacity="1"/>
<stop offset="0.46875" stop-color="rgb(80.151367%, 3.88031%, 52.490234%)" stop-opacity="1"/>
<stop offset="0.472656" stop-color="rgb(79.794312%, 3.910828%, 52.740479%)" stop-opacity="1"/>
<stop offset="0.476563" stop-color="rgb(79.43573%, 3.944397%, 52.990723%)" stop-opacity="1"/>
<stop offset="0.480469" stop-color="rgb(79.078674%, 3.965759%, 53.285217%)" stop-opacity="1"/>
<stop offset="0.484375" stop-color="rgb(78.718567%, 3.988647%, 53.579712%)" stop-opacity="1"/>
<stop offset="0.488281" stop-color="rgb(78.327942%, 4.020691%, 53.875732%)" stop-opacity="1"/>
<stop offset="0.492188" stop-color="rgb(77.934265%, 4.052734%, 54.171753%)" stop-opacity="1"/>
<stop offset="0.496094" stop-color="rgb(77.485657%, 4.100037%, 54.467773%)" stop-opacity="1"/>
<stop offset="0.5" stop-color="rgb(77.037048%, 4.148865%, 54.763794%)" stop-opacity="1"/>
<stop offset="0.503906" stop-color="rgb(76.528931%, 4.23584%, 54.960632%)" stop-opacity="1"/>
<stop offset="0.507812" stop-color="rgb(76.019287%, 4.324341%, 55.157471%)" stop-opacity="1"/>
<stop offset="0.511719" stop-color="rgb(75.491333%, 4.429626%, 55.305481%)" stop-opacity="1"/>
<stop offset="0.515625" stop-color="rgb(74.963379%, 4.534912%, 55.453491%)" stop-opacity="1"/>
<stop offset="0.519531" stop-color="rgb(74.5224%, 4.649353%, 55.467224%)" stop-opacity="1"/>
<stop offset="0.523438" stop-color="rgb(74.079895%, 4.763794%, 55.482483%)" stop-opacity="1"/>
<stop offset="0.527344" stop-color="rgb(73.602295%, 4.88739%, 55.496216%)" stop-opacity="1"/>
<stop offset="0.53125" stop-color="rgb(73.124695%, 5.00946%, 55.511475%)" stop-opacity="1"/>
<stop offset="0.535156" stop-color="rgb(72.595215%, 5.14679%, 55.528259%)" stop-opacity="1"/>
<stop offset="0.539062" stop-color="rgb(72.065735%, 5.282593%, 55.545044%)" stop-opacity="1"/>
<stop offset="0.542969" stop-color="rgb(71.403503%, 5.760193%, 55.718994%)" stop-opacity="1"/>
<stop offset="0.546875" stop-color="rgb(70.73822%, 6.233215%, 55.891418%)" stop-opacity="1"/>
<stop offset="0.550781" stop-color="rgb(70.019531%, 6.785583%, 56.100464%)" stop-opacity="1"/>
<stop offset="0.554688" stop-color="rgb(69.299316%, 7.331848%, 56.307983%)" stop-opacity="1"/>
<stop offset="0.558594" stop-color="rgb(68.49823%, 7.627869%, 56.381226%)" stop-opacity="1"/>
<stop offset="0.5625" stop-color="rgb(67.697144%, 7.922363%, 56.455994%)" stop-opacity="1"/>
<stop offset="0.566406" stop-color="rgb(66.93573%, 8.206177%, 56.52771%)" stop-opacity="1"/>
<stop offset="0.570312" stop-color="rgb(66.172791%, 8.486938%, 56.599426%)" stop-opacity="1"/>
<stop offset="0.574219" stop-color="rgb(65.460205%, 8.755493%, 56.669617%)" stop-opacity="1"/>
<stop offset="0.578125" stop-color="rgb(64.744568%, 9.022522%, 56.739807%)" stop-opacity="1"/>
<stop offset="0.582031" stop-color="rgb(63.955688%, 9.455872%, 56.890869%)" stop-opacity="1"/>
<stop offset="0.585938" stop-color="rgb(63.162231%, 9.887695%, 57.040405%)" stop-opacity="1"/>
<stop offset="0.589844" stop-color="rgb(62.376404%, 10.327148%, 57.197571%)" stop-opacity="1"/>
<stop offset="0.59375" stop-color="rgb(61.587524%, 10.762024%, 57.351685%)" stop-opacity="1"/>
<stop offset="0.597656" stop-color="rgb(60.957336%, 11.000061%, 57.418823%)" stop-opacity="1"/>
<stop offset="0.601562" stop-color="rgb(60.325623%, 11.236572%, 57.484436%)" stop-opacity="1"/>
<stop offset="0.605469" stop-color="rgb(59.693909%, 11.515808%, 57.574463%)" stop-opacity="1"/>
<stop offset="0.609375" stop-color="rgb(59.059143%, 11.793518%, 57.662964%)" stop-opacity="1"/>
<stop offset="0.613281" stop-color="rgb(58.422852%, 12.117004%, 57.777405%)" stop-opacity="1"/>
<stop offset="0.617188" stop-color="rgb(57.783508%, 12.438965%, 57.89032%)" stop-opacity="1"/>
<stop offset="0.621094" stop-color="rgb(57.145691%, 12.759399%, 58.004761%)" stop-opacity="1"/>
<stop offset="0.625" stop-color="rgb(56.504822%, 13.075256%, 58.117676%)" stop-opacity="1"/>
<stop offset="0.628906" stop-color="rgb(55.848694%, 13.394165%, 58.230591%)" stop-opacity="1"/>
<stop offset="0.632812" stop-color="rgb(55.189514%, 13.711548%, 58.343506%)" stop-opacity="1"/>
<stop offset="0.636719" stop-color="rgb(54.457092%, 14.042664%, 58.457947%)" stop-opacity="1"/>
<stop offset="0.640625" stop-color="rgb(53.723145%, 14.370728%, 58.572388%)" stop-opacity="1"/>
<stop offset="0.644531" stop-color="rgb(53.082275%, 14.675903%, 58.683777%)" stop-opacity="1"/>
<stop offset="0.648438" stop-color="rgb(52.43988%, 14.979553%, 58.79364%)" stop-opacity="1"/>
<stop offset="0.652344" stop-color="rgb(51.882935%, 15.264893%, 58.903503%)" stop-opacity="1"/>
<stop offset="0.65625" stop-color="rgb(51.325989%, 15.545654%, 59.010315%)" stop-opacity="1"/>
<stop offset="0.660156" stop-color="rgb(50.602722%, 15.931702%, 59.164429%)" stop-opacity="1"/>
<stop offset="0.664062" stop-color="rgb(49.87793%, 16.316223%, 59.317017%)" stop-opacity="1"/>
<stop offset="0.667969" stop-color="rgb(49.147034%, 16.690063%, 59.465027%)" stop-opacity="1"/>
<stop offset="0.671875" stop-color="rgb(48.416138%, 17.060852%, 59.613037%)" stop-opacity="1"/>
<stop offset="0.675781" stop-color="rgb(47.761536%, 17.349243%, 59.721375%)" stop-opacity="1"/>
<stop offset="0.679688" stop-color="rgb(47.106934%, 17.636108%, 59.829712%)" stop-opacity="1"/>
<stop offset="0.683594" stop-color="rgb(46.502686%, 17.912292%, 59.936523%)" stop-opacity="1"/>
<stop offset="0.6875" stop-color="rgb(45.896912%, 18.185425%, 60.041809%)" stop-opacity="1"/>
<stop offset="0.691406" stop-color="rgb(45.329285%, 18.447876%, 60.147095%)" stop-opacity="1"/>
<stop offset="0.695312" stop-color="rgb(44.761658%, 18.710327%, 60.25238%)" stop-opacity="1"/>
<stop offset="0.699219" stop-color="rgb(44.174194%, 19.116211%, 60.441589%)" stop-opacity="1"/>
<stop offset="0.703125" stop-color="rgb(43.585205%, 19.519043%, 60.632324%)" stop-opacity="1"/>
<stop offset="0.707031" stop-color="rgb(42.997742%, 19.891357%, 60.804749%)" stop-opacity="1"/>
<stop offset="0.710938" stop-color="rgb(42.410278%, 20.26062%, 60.978699%)" stop-opacity="1"/>
<stop offset="0.714844" stop-color="rgb(41.836548%, 20.51239%, 61.080933%)" stop-opacity="1"/>
<stop offset="0.71875" stop-color="rgb(41.261292%, 20.761108%, 61.184692%)" stop-opacity="1"/>
<stop offset="0.722656" stop-color="rgb(40.740967%, 21.000671%, 61.2854%)" stop-opacity="1"/>
<stop offset="0.726562" stop-color="rgb(40.220642%, 21.235657%, 61.387634%)" stop-opacity="1"/>
<stop offset="0.730469" stop-color="rgb(39.736938%, 21.464539%, 61.486816%)" stop-opacity="1"/>
<stop offset="0.734375" stop-color="rgb(39.250183%, 21.691895%, 61.587524%)" stop-opacity="1"/>
<stop offset="0.738281" stop-color="rgb(38.752747%, 21.990967%, 61.730957%)" stop-opacity="1"/>
<stop offset="0.742188" stop-color="rgb(38.253784%, 22.285461%, 61.87439%)" stop-opacity="1"/>
<stop offset="0.746094" stop-color="rgb(37.757874%, 22.561646%, 62.007141%)" stop-opacity="1"/>
<stop offset="0.75" stop-color="rgb(37.258911%, 22.834778%, 62.138367%)" stop-opacity="1"/>
<stop offset="0.753906" stop-color="rgb(36.77063%, 23.054504%, 62.237549%)" stop-opacity="1"/>
<stop offset="0.757812" stop-color="rgb(36.279297%, 23.271179%, 62.335205%)" stop-opacity="1"/>
<stop offset="0.761719" stop-color="rgb(35.780334%, 23.53363%, 62.463379%)" stop-opacity="1"/>
<stop offset="0.765625" stop-color="rgb(35.279846%, 23.796082%, 62.590027%)" stop-opacity="1"/>
<stop offset="0.769531" stop-color="rgb(34.773254%, 24.081421%, 62.733459%)" stop-opacity="1"/>
<stop offset="0.773438" stop-color="rgb(34.265137%, 24.365234%, 62.876892%)" stop-opacity="1"/>
<stop offset="0.777344" stop-color="rgb(33.940125%, 24.621582%, 63.017273%)" stop-opacity="1"/>
<stop offset="0.78125" stop-color="rgb(33.616638%, 24.876404%, 63.157654%)" stop-opacity="1"/>
<stop offset="0.785156" stop-color="rgb(33.261108%, 25.132751%, 63.298035%)" stop-opacity="1"/>
<stop offset="0.789062" stop-color="rgb(32.905579%, 25.389099%, 63.438416%)" stop-opacity="1"/>
<stop offset="0.792969" stop-color="rgb(32.487488%, 25.65155%, 63.578796%)" stop-opacity="1"/>
<stop offset="0.796875" stop-color="rgb(32.067871%, 25.91095%, 63.719177%)" stop-opacity="1"/>
<stop offset="0.800781" stop-color="rgb(31.732178%, 26.066589%, 63.796997%)" stop-opacity="1"/>
<stop offset="0.804688" stop-color="rgb(31.394958%, 26.220703%, 63.874817%)" stop-opacity="1"/>
<stop offset="0.808594" stop-color="rgb(31.106567%, 26.322937%, 63.920593%)" stop-opacity="1"/>
<stop offset="0.8125" stop-color="rgb(30.81665%, 26.425171%, 63.967896%)" stop-opacity="1"/>
<stop offset="0.875" stop-color="rgb(30.81665%, 26.425171%, 63.967896%)" stop-opacity="1"/>
<stop offset="1" stop-color="rgb(30.81665%, 26.425171%, 63.967896%)" stop-opacity="1"/>
</linearGradient>
</defs>

<path fill="none" stroke-width="10" stroke-linecap="butt" stroke-linejoin="miter" stroke="rgb(93.818665%, 93.231201%, 5.37262%)" stroke-opacity="1" stroke-miterlimit="10" d="M 47072.890625 15320.117188 C 43867.109375 7214.609375 40695.703125 5147.304688 38315.390625 4845.703125 C 33019.609375 4174.6875 29198.007812 12992.695312 23329.492188 11977.1875 C 19268.710938 11274.414062 19709.101562 6846.289062 15581.289062 5082.382812 C 12353.203125 3703.007812 7058.359375 3526.015625 -1934.921875 9149.804688 " transform="matrix(0.1, 0, 0, -0.1, 0, 2160)"/>
<path fill="none" stroke-width="10" stroke-linecap="butt" stroke-linejoin="miter" stroke="rgb(91.967773%, 92.678833%, 5.92804%)" stroke-opacity="1" stroke-miterlimit="10" d="M -1977.382812 9035.507812 C 6906.796875 3555.195312 12205.585938 3835.195312 15492.1875 5190.390625 C 19646.601562 6903.515625 19263.789062 11023.28125 23350.585938 11799.609375 C 29184.804688 12907.890625 33039.6875 4107.109375 38291.484375 4918.007812 C 40685.507812 5287.617188 43801.015625 7560.507812 46941.71875 15548.789062 " transform="matrix(0.1, 0, 0, -0.1, 0, 2160)"/>
<path fill="none" stroke-width="10" stroke-linecap="butt" stroke-linejoin="miter" stroke="rgb(90.187073%, 92.11731%, 5.900574%)" stroke-opacity="1" stroke-miterlimit="10" d="M -2019.882812 8921.210938 C 6755.234375 3584.296875 12057.5 3967.695312 15403.203125 5298.515625 C 19583.59375 6961.210938 19258.28125 10771.40625 23371.601562 11622.109375 C 29171.09375 12821.289062 33061.601562 4042.617188 38267.695312 4990.3125 C 40676.71875 5428.789062 43734.882812 7906.484375 46810.507812 15777.617188 " transform="matrix(0.1, 0, 0, -0.1, 0, 2160)"/>
<path fill="none" stroke-width="10" stroke-linecap="butt" stroke-linejoin="miter" stroke="rgb(88.331604%, 91.506958%, 5.340576%)" stroke-opacity="1" stroke-miterlimit="10" d="M -2062.382812 8806.992188 C 6603.671875 3613.515625 11908.984375 4100.585938 15314.101562 5406.484375 C 19520 7019.609375 19252.1875 10518.789062 23392.695312 11444.492188 C 29156.992188 12733.203125 33085.117188 3981.210938 38243.90625 5062.617188 C 40668.984375 5570.898438 43668.710938 8252.5 46679.296875 16006.289062 " transform="matrix(0.1, 0, 0, -0.1, 0, 2160)"/>
<path fill="none" stroke-width="10" stroke-linecap="butt" stroke-linejoin="miter" stroke="rgb(86.645508%, 90.985107%, 5.488586%)" stroke-opacity="1" stroke-miterlimit="10" d="M -2104.84375 8692.695312 C 6452.109375 3642.617188 11760.117188 4233.710938 15225.117188 5514.609375 C 19455.898438 7078.59375 19245.78125 10265.390625 23413.789062 11266.914062 C 29142.5 12643.515625 33109.804688 3923.007812 38220.117188 5134.882812 C 40662.304688 5713.984375 43602.617188 8598.398438 46548.085938 16235 " transform="matrix(0.1, 0, 0, -0.1, 0, 2160)"/>
<path fill="none" stroke-width="10" stroke-linecap="butt" stroke-linejoin="miter" stroke="rgb(84.669495%, 90.348816%, 5.175781%)" stroke-opacity="1" stroke-miterlimit="10" d="M -2147.34375 8578.398438 C 6300.507812 3671.796875 11610.898438 4367.109375 15136.015625 5622.617188 C 19391.289062 7138.203125 19238.90625 10011.210938 23434.804688 11089.414062 C 29127.8125 12552.1875 33135.585938 3868.085938 38196.289062 5207.1875 C 40656.40625 5858.203125 43536.484375 8944.414062 46416.914062 16463.710938 " transform="matrix(0.1, 0, 0, -0.1, 0, 2160)"/>
<path fill="none" stroke-width="10" stroke-linecap="butt" stroke-linejoin="miter" stroke="rgb(82.569885%, 89.71405%, 5.648804%)" stroke-opacity="1" stroke-miterlimit="10" d="M -2189.84375 8464.101562 C 6148.945312 3700.898438 11461.289062 4500.898438 15046.992188 5730.703125 C 19326.289062 7198.398438 19231.71875 9756.210938 23455.898438 10911.796875 C 29112.890625 12459.414062 33162.304688 3816.289062 38172.5 5279.492188 C 40651.40625 6003.515625 43470.3125 9290.390625 46285.585938 16692.382812 " transform="matrix(0.1, 0, 0, -0.1, 0, 2160)"/>
<path fill="none" stroke-width="10" stroke-linecap="butt" stroke-linejoin="miter" stroke="rgb(81.227112%, 89.369202%, 7.16095%)" stroke-opacity="1" stroke-miterlimit="10" d="M -2232.304688 8349.882812 C 5997.382812 3730 11311.484375 4635 14957.890625 5838.710938 C 19260.898438 7259.21875 19224.21875 9500.390625 23476.914062 10734.296875 C 29097.8125 12365.117188 33189.609375 3767.8125 38148.59375 5351.796875 C 40646.992188 6149.804688 43404.21875 9636.40625 46154.414062 16921.210938 " transform="matrix(0.1, 0, 0, -0.1, 0, 2160)"/>
<path fill="none" stroke-width="10" stroke-linecap="butt" stroke-linejoin="miter" stroke="rgb(79.151917%, 88.78479%, 8.518982%)" stroke-opacity="1" stroke-miterlimit="10" d="M -2274.804688 8235.585938 C 5845.820312 3759.21875 11161.289062 4769.414062 14868.90625 5946.796875 C 19195.117188 7320.585938 19216.40625 9243.710938 23498.007812 10556.71875 C 29082.617188 12269.296875 33217.1875 3722.304688 38124.804688 5424.101562 C 40643.007812 6297.304688 43338.085938 9982.304688 46023.203125 17149.882812 " transform="matrix(0.1, 0, 0, -0.1, 0, 2160)"/>
<path fill="none" stroke-width="10" stroke-linecap="butt" stroke-linejoin="miter" stroke="rgb(77.661133%, 88.412476%, 10.406494%)" stroke-opacity="1" stroke-miterlimit="10" d="M -2317.265625 8121.289062 C 5694.257812 3788.28125 11010.78125 4904.21875 14779.804688 6054.804688 C 19128.984375 7382.5 19208.515625 8986.210938 23519.101562 10379.101562 C 29067.382812 12171.992188 33245.117188 3679.882812 38101.015625 5496.40625 C 40639.492188 6446.015625 43271.914062 10328.28125 45891.992188 17378.59375 " transform="matrix(0.1, 0, 0, -0.1, 0, 2160)"/>
<path fill="none" stroke-width="10" stroke-linecap="butt" stroke-linejoin="miter" stroke="rgb(75.831604%, 87.908936%, 11.842346%)" stroke-opacity="1" stroke-miterlimit="10" d="M -2359.765625 8007.109375 C 5542.695312 3817.5 10860.117188 5039.414062 14690.78125 6162.890625 C 19062.617188 7445 19200.507812 8727.890625 23540.117188 10201.601562 C 29052.1875 12073.398438 33272.890625 3640.390625 38077.1875 5568.710938 C 40636.210938 6595.78125 43205.78125 10674.296875 45760.78125 17607.304688 " transform="matrix(0.1, 0, 0, -0.1, 0, 2160)"/>
<path fill="none" stroke-width="10" stroke-linecap="butt" stroke-linejoin="miter" stroke="rgb(74.023438%, 87.464905%, 14.315796%)" stroke-opacity="1" stroke-miterlimit="10" d="M -2402.265625 7892.8125 C 5391.132812 3846.601562 10709.21875 5175 14601.71875 6270.898438 C 18995.78125 7508.085938 19192.382812 8468.789062 23561.210938 10023.984375 C 29037.109375 11973.398438 33300.585938 3603.710938 38053.398438 5641.015625 C 40633.007812 6746.796875 43139.609375 11020.3125 45629.609375 17836.09375 " transform="matrix(0.1, 0, 0, -0.1, 0, 2160)"/>
<path fill="none" stroke-width="10" stroke-linecap="butt" stroke-linejoin="miter" stroke="rgb(72.583008%, 87.051392%, 15.081787%)" stroke-opacity="1" stroke-miterlimit="10" d="M -2444.726562 7778.515625 C 5239.570312 3875.78125 10558.085938 5310.898438 14512.695312 6378.984375 C 18928.789062 7571.71875 19184.21875 8208.789062 23582.1875 9846.484375 C 29022.109375 11871.992188 33328.007812 3569.6875 38029.609375 5713.28125 C 40629.882812 6898.90625 43073.515625 11366.210938 45498.398438 18064.804688 " transform="matrix(0.1, 0, 0, -0.1, 0, 2160)"/>
<path fill="none" stroke-width="10" stroke-linecap="butt" stroke-linejoin="miter" stroke="rgb(70.973206%, 86.628723%, 16.760254%)" stroke-opacity="1" stroke-miterlimit="10" d="M -2487.226562 7664.296875 C 5088.007812 3904.882812 10406.71875 5447.1875 14423.59375 6486.992188 C 18861.601562 7635.78125 19176.09375 7948.007812 23603.28125 9668.90625 C 29007.1875 11769.492188 33354.882812 3538.085938 38005.703125 5785.585938 C 40626.71875 7052.1875 43007.382812 11712.1875 45367.1875 18293.515625 " transform="matrix(0.1, 0, 0, -0.1, 0, 2160)"/>
<path fill="none" stroke-width="10" stroke-linecap="butt" stroke-linejoin="miter" stroke="rgb(69.287109%, 86.183167%, 18.443298%)" stroke-opacity="1" stroke-miterlimit="10" d="M -2529.726562 7550 C 4936.445312 3933.984375 10255.195312 5583.90625 14334.609375 6595 C 18794.101562 7700.390625 19168.085938 7686.40625 23624.414062 9491.289062 C 28992.617188 11665.703125 33381.289062 3508.90625 37981.914062 5857.890625 C 40623.28125 7206.601562 42941.210938 12058.203125 45236.015625 18522.1875 " transform="matrix(0.1, 0, 0, -0.1, 0, 2160)"/>
<path fill="none" stroke-width="10" stroke-linecap="butt" stroke-linejoin="miter" stroke="rgb(67.553711%, 85.720825%, 20.121765%)" stroke-opacity="1" stroke-miterlimit="10" d="M -2572.1875 7435.703125 C 4784.84375 3963.203125 10103.515625 5721.015625 14245.507812 6703.085938 C 18726.484375 7765.507812 19160.195312 7423.90625 23645.390625 9313.789062 C 28978.203125 11560.78125 33406.914062 3481.914062 37958.085938 5930.195312 C 40619.609375 7361.992188 42875.117188 12404.21875 45104.804688 18750.898438 " transform="matrix(0.1, 0, 0, -0.1, 0, 2160)"/>
<path fill="none" stroke-width="10" stroke-linecap="butt" stroke-linejoin="miter" stroke="rgb(66.114807%, 85.35614%, 21.875%)" stroke-opacity="1" stroke-miterlimit="10" d="M -2614.6875 7321.484375 C 4633.28125 3992.304688 9951.601562 5858.515625 14156.40625 6811.09375 C 18658.710938 7831.09375 19152.5 7160.703125 23666.484375 9136.210938 C 28964.101562 11454.6875 33431.796875 3456.914062 37934.296875 6002.5 C 40615.585938 7518.515625 42808.984375 12750.195312 44973.515625 18979.6875 " transform="matrix(0.1, 0, 0, -0.1, 0, 2160)"/>
<path fill="none" stroke-width="10" stroke-linecap="butt" stroke-linejoin="miter" stroke="rgb(64.503479%, 84.986877%, 24.671936%)" stroke-opacity="1" stroke-miterlimit="10" d="M -2657.1875 7207.1875 C 4481.71875 4021.484375 9799.648438 5996.484375 14067.382812 6919.21875 C 18590.703125 7897.1875 19145 6896.601562 23687.5 8958.59375 C 28950.3125 11347.617188 33455.898438 3433.710938 37910.507812 6074.804688 C 40611.210938 7676.09375 42742.8125 13096.09375 44842.304688 19208.398438 " transform="matrix(0.1, 0, 0, -0.1, 0, 2160)"/>
<path fill="none" stroke-width="10" stroke-linecap="butt" stroke-linejoin="miter" stroke="rgb(63.160706%, 84.623718%, 25.856018%)" stroke-opacity="1" stroke-miterlimit="10" d="M -2699.648438 7092.890625 C 4330.15625 4050.585938 9647.539062 6134.804688 13978.28125 7027.1875 C 18522.617188 7963.710938 19137.695312 6631.796875 23708.59375 8781.09375 C 28936.914062 11239.492188 33479.101562 3412.304688 37886.71875 6147.109375 C 40606.210938 7834.609375 42676.71875 13442.109375 44711.09375 19437.109375 " transform="matrix(0.1, 0, 0, -0.1, 0, 2160)"/>
<path fill="none" stroke-width="10" stroke-linecap="butt" stroke-linejoin="miter" stroke="rgb(61.669922%, 84.263611%, 28.068542%)" stroke-opacity="1" stroke-miterlimit="10" d="M -2742.148438 6978.710938 C 4178.59375 4079.804688 9495.3125 6273.515625 13889.296875 7135.3125 C 18454.414062 8030.703125 19130.703125 6366.210938 23729.609375 8603.515625 C 28923.789062 11130.390625 33501.289062 3392.382812 37862.890625 6219.492188 C 40600.703125 7993.984375 42610.507812 13788.085938 44579.882812 19665.78125 " transform="matrix(0.1, 0, 0, -0.1, 0, 2160)"/>
<path fill="none" stroke-width="10" stroke-linecap="butt" stroke-linejoin="miter" stroke="rgb(60.548401%, 83.988953%, 29.670715%)" stroke-opacity="1" stroke-miterlimit="10" d="M -2784.609375 6864.414062 C 4027.03125 4108.90625 9343.046875 6412.617188 13800.195312 7243.28125 C 18386.09375 8098.085938 19123.984375 6099.804688 23750.703125 8426.015625 C 28911.09375 11020.507812 33522.617188 3373.984375 37838.984375 6291.796875 C 40594.492188 8154.414062 42544.414062 14134.101562 44448.710938 19894.492188 " transform="matrix(0.1, 0, 0, -0.1, 0, 2160)"/>
<path fill="none" stroke-width="10" stroke-linecap="butt" stroke-linejoin="miter" stroke="rgb(59.106445%, 83.657837%, 32.162476%)" stroke-opacity="1" stroke-miterlimit="10" d="M -2827.109375 6750.117188 C 3875.46875 4138.007812 9190.664062 6552.109375 13711.210938 7351.40625 C 18317.8125 8165.898438 19117.695312 5832.695312 23771.796875 8248.398438 C 28898.789062 10909.609375 33542.8125 3356.796875 37815.195312 6364.101562 C 40587.695312 8315.507812 42478.28125 14480 44317.5 20123.28125 " transform="matrix(0.1, 0, 0, -0.1, 0, 2160)"/>
<path fill="none" stroke-width="10" stroke-linecap="butt" stroke-linejoin="miter" stroke="rgb(57.885742%, 83.335876%, 33.425903%)" stroke-opacity="1" stroke-miterlimit="10" d="M -2869.609375 6635.898438 C 3723.90625 4167.1875 9038.242188 6691.992188 13622.109375 7459.414062 C 18249.296875 8234.101562 19111.796875 5564.804688 23792.8125 8070.78125 C 28886.914062 10798.007812 33561.992188 3340.703125 37791.40625 6436.40625 C 40580.117188 8477.5 42412.109375 14826.015625 44186.289062 20351.992188 " transform="matrix(0.1, 0, 0, -0.1, 0, 2160)"/>
<path fill="none" stroke-width="10" stroke-linecap="butt" stroke-linejoin="miter" stroke="rgb(56.373596%, 82.971191%, 35.723877%)" stroke-opacity="1" stroke-miterlimit="10" d="M -2912.070312 6521.601562 C 3572.34375 4196.289062 8885.742188 6832.304688 13533.085938 7567.5 C 18180.78125 8302.695312 19106.210938 5296.289062 23813.90625 7893.28125 C 28875.507812 10685.585938 33580.117188 3325.703125 37767.617188 6508.710938 C 40571.796875 8640.3125 42346.015625 15171.992188 44055.117188 20580.703125 " transform="matrix(0.1, 0, 0, -0.1, 0, 2160)"/>
<path fill="none" stroke-width="10" stroke-linecap="butt" stroke-linejoin="miter" stroke="rgb(55.006409%, 82.650757%, 37.962341%)" stroke-opacity="1" stroke-miterlimit="10" d="M -2954.570312 6407.304688 C 3420.78125 4225.507812 8733.203125 6973.007812 13443.984375 7675.507812 C 18112.304688 8371.71875 19101.210938 5026.992188 23834.882812 7715.703125 C 28864.609375 10572.5 33597.1875 3311.484375 37743.789062 6581.015625 C 40562.8125 8803.710938 42279.882812 15517.890625 43923.90625 20809.414062 " transform="matrix(0.1, 0, 0, -0.1, 0, 2160)"/>
<path fill="none" stroke-width="10" stroke-linecap="butt" stroke-linejoin="miter" stroke="rgb(53.686523%, 82.318115%, 39.685059%)" stroke-opacity="1" stroke-miterlimit="10" d="M -2997.03125 6293.085938 C 3269.21875 4254.609375 8580.664062 7114.101562 13355 7783.59375 C 18043.710938 8441.09375 19096.601562 4757.109375 23856.015625 7538.203125 C 28854.101562 10458.710938 33613.28125 3298.085938 37720 6653.28125 C 40552.890625 8967.8125 42213.710938 15863.90625 43792.617188 21038.085938 " transform="matrix(0.1, 0, 0, -0.1, 0, 2160)"/>
<path fill="none" stroke-width="10" stroke-linecap="butt" stroke-linejoin="miter" stroke="rgb(52.441406%, 82.015991%, 41.537476%)" stroke-opacity="1" stroke-miterlimit="10" d="M -3039.53125 6178.789062 C 3117.65625 4283.789062 8428.085938 7255.507812 13265.898438 7891.601562 C 17975.117188 8510.78125 19092.5 4486.484375 23877.109375 7360.585938 C 28844.101562 10344.21875 33628.28125 3285.390625 37696.09375 6725.585938 C 40542.1875 9132.5 42147.617188 16209.882812 43661.40625 21266.914062 " transform="matrix(0.1, 0, 0, -0.1, 0, 2160)"/>
<path fill="none" stroke-width="10" stroke-linecap="butt" stroke-linejoin="miter" stroke="rgb(50.732422%, 81.585693%, 43.772888%)" stroke-opacity="1" stroke-miterlimit="10" d="M -3082.03125 6064.492188 C 2966.054688 4312.890625 8275.507812 7397.382812 13176.914062 7999.6875 C 17906.601562 8580.78125 19088.90625 4215.3125 23898.085938 7183.007812 C 28834.609375 10229.296875 33642.304688 3273.28125 37672.304688 6797.890625 C 40530.703125 9297.8125 42081.40625 16555.898438 43530.195312 21495.585938 " transform="matrix(0.1, 0, 0, -0.1, 0, 2160)"/>
<path fill="none" stroke-width="10" stroke-linecap="butt" stroke-linejoin="miter" stroke="rgb(49.415588%, 81.259155%, 45.594788%)" stroke-opacity="1" stroke-miterlimit="10" d="M -3124.492188 5950.3125 C 2814.492188 4341.992188 8122.929688 7539.609375 13087.8125 8107.695312 C 17838.007812 8651.210938 19085.78125 3943.515625 23919.21875 7005.507812 C 28825.507812 10113.710938 33655.3125 3261.601562 37648.515625 6870.195312 C 40518.398438 9463.59375 42015.3125 16901.914062 43398.984375 21724.296875 " transform="matrix(0.1, 0, 0, -0.1, 0, 2160)"/>
<path fill="none" stroke-width="10" stroke-linecap="butt" stroke-linejoin="miter" stroke="rgb(48.4375%, 81.065369%, 47.970581%)" stroke-opacity="1" stroke-miterlimit="10" d="M -3166.992188 5836.015625 C 2662.929688 4371.210938 7970.351562 7682.304688 12998.789062 8215.78125 C 17769.492188 8721.914062 19083.28125 3671.015625 23940.195312 6827.890625 C 28816.992188 9997.695312 33667.304688 3250.390625 37624.6875 6942.5 C 40505.195312 9629.882812 41949.21875 17247.8125 43267.8125 21953.007812 " transform="matrix(0.1, 0, 0, -0.1, 0, 2160)"/>
<path fill="none" stroke-width="10" stroke-linecap="butt" stroke-linejoin="miter" stroke="rgb(47.265625%, 80.802917%, 50.19989%)" stroke-opacity="1" stroke-miterlimit="10" d="M -3209.492188 5721.71875 C 2511.367188 4400.3125 7817.8125 7825.3125 12909.6875 8323.789062 C 17700.898438 8792.890625 19081.289062 3398.007812 23961.289062 6650.390625 C 28808.984375 9881.210938 33678.28125 3239.492188 37600.898438 7014.804688 C 40491.210938 9796.601562 41883.007812 17593.789062 43136.601562 22181.71875 " transform="matrix(0.1, 0, 0, -0.1, 0, 2160)"/>
<path fill="none" stroke-width="10" stroke-linecap="butt" stroke-linejoin="miter" stroke="rgb(46.09375%, 80.54657%, 52.561951%)" stroke-opacity="1" stroke-miterlimit="10" d="M -3251.953125 5607.5 C 2359.804688 4429.492188 7665.273438 7968.59375 12820.703125 8431.914062 C 17632.382812 8864.21875 19079.882812 3124.492188 23982.382812 6472.8125 C 28801.484375 9764.21875 33688.28125 3228.789062 37577.109375 7087.109375 C 40476.289062 9963.710938 41816.914062 17939.804688 43005.390625 22410.507812 " transform="matrix(0.1, 0, 0, -0.1, 0, 2160)"/>
<path fill="none" stroke-width="10" stroke-linecap="butt" stroke-linejoin="miter" stroke="rgb(45.507812%, 80.477905%, 54.974365%)" stroke-opacity="1" stroke-miterlimit="10" d="M -3294.453125 5493.203125 C 2208.242188 4458.59375 7512.8125 8112.382812 12731.601562 8539.882812 C 17563.984375 8935.78125 19079.101562 2850.390625 24003.398438 6295.195312 C 28794.492188 9646.914062 33697.5 3218.28125 37553.203125 7159.414062 C 40460.585938 10131.09375 41750.78125 18285.78125 42874.21875 22639.21875 " transform="matrix(0.1, 0, 0, -0.1, 0, 2160)"/>
<path fill="none" stroke-width="10" stroke-linecap="butt" stroke-linejoin="miter" stroke="rgb(44.335938%, 80.212402%, 57.139587%)" stroke-opacity="1" stroke-miterlimit="10" d="M -3336.914062 5378.90625 C 2056.679688 4487.8125 7360.351562 8256.40625 12642.617188 8648.007812 C 17495.585938 9007.617188 19078.984375 2575.78125 24024.492188 6117.695312 C 28788.007812 9529.21875 33705.703125 3208.007812 37529.414062 7231.71875 C 40444.101562 10298.90625 41684.609375 18631.71875 42743.007812 22867.890625 " transform="matrix(0.1, 0, 0, -0.1, 0, 2160)"/>
<path fill="none" stroke-width="10" stroke-linecap="butt" stroke-linejoin="miter" stroke="rgb(43.360901%, 80.014038%, 59.451294%)" stroke-opacity="1" stroke-miterlimit="10" d="M -3379.414062 5264.6875 C 1905.117188 4516.914062 7207.96875 8400.898438 12553.515625 8756.015625 C 17427.304688 9079.804688 19079.414062 2300.703125 24045.507812 5940.117188 C 28782.109375 9411.210938 33713.085938 3197.695312 37505.585938 7303.984375 C 40426.796875 10466.914062 41618.515625 18977.695312 42611.796875 23096.601562 " transform="matrix(0.1, 0, 0, -0.1, 0, 2160)"/>
<path fill="none" stroke-width="10" stroke-linecap="butt" stroke-linejoin="miter" stroke="rgb(42.578125%, 79.879761%, 61.819458%)" stroke-opacity="1" stroke-miterlimit="10" d="M -3421.914062 5150.390625 C 1753.554688 4546.09375 7055.625 8545.703125 12464.492188 8863.984375 C 17358.984375 9152.109375 19080.390625 2025.117188 24066.601562 5762.5 C 28776.601562 9292.890625 33719.609375 3187.5 37481.796875 7376.289062 C 40408.710938 10635.195312 41552.304688 19323.710938 42480.507812 23325.3125 " transform="matrix(0.1, 0, 0, -0.1, 0, 2160)"/>
<path fill="none" stroke-width="10" stroke-linecap="butt" stroke-linejoin="miter" stroke="rgb(41.798401%, 79.73175%, 63.86261%)" stroke-opacity="1" stroke-miterlimit="10" d="M -3464.375 5036.09375 C 1601.953125 4575.195312 6903.359375 8690.78125 12375.390625 8972.109375 C 17290.78125 9224.804688 19082.109375 1749.101562 24087.695312 5585 C 28771.601562 9174.414062 33725.390625 3177.1875 37458.007812 7448.59375 C 40389.804688 10803.710938 41486.210938 19669.6875 42349.296875 23554.101562 " transform="matrix(0.1, 0, 0, -0.1, 0, 2160)"/>
<path fill="none" stroke-width="10" stroke-linecap="butt" stroke-linejoin="miter" stroke="rgb(41.210938%, 79.650879%, 66.065979%)" stroke-opacity="1" stroke-miterlimit="10" d="M -3506.875 4921.914062 C 1450.390625 4604.296875 6751.132812 8836.289062 12286.40625 9080.117188 C 17222.617188 9297.617188 19084.414062 1472.695312 24108.710938 5407.382812 C 28767.1875 9055.585938 33730.3125 3166.914062 37434.21875 7520.898438 C 40370.195312 10972.382812 41420.117188 20015.585938 42218.085938 23782.8125 " transform="matrix(0.1, 0, 0, -0.1, 0, 2160)"/>
<path fill="none" stroke-width="10" stroke-linecap="butt" stroke-linejoin="miter" stroke="rgb(40.235901%, 79.446411%, 68.247986%)" stroke-opacity="1" stroke-miterlimit="10" d="M -3549.375 4807.617188 C 1298.828125 4633.515625 6598.984375 8982.109375 12197.304688 9188.203125 C 17154.609375 9370.703125 19087.304688 1195.898438 24129.804688 5229.882812 C 28763.203125 8936.601562 33734.492188 3156.484375 37410.3125 7593.203125 C 40349.882812 11141.210938 41353.90625 20361.601562 42086.914062 24011.484375 " transform="matrix(0.1, 0, 0, -0.1, 0, 2160)"/>
<path fill="none" stroke-width="10" stroke-linecap="butt" stroke-linejoin="miter" stroke="rgb(39.648438%, 79.36554%, 70.46051%)" stroke-opacity="1" stroke-miterlimit="10" d="M -3591.835938 4693.28125 C 1147.265625 4662.617188 6446.914062 9128.203125 12108.28125 9296.210938 C 17086.601562 9443.984375 19090.898438 918.710938 24150.78125 5052.304688 C 28759.6875 8817.382812 33738.007812 3146.015625 37386.484375 7665.507812 C 40328.789062 11310.117188 41287.8125 20707.617188 41955.703125 24240.195312 " transform="matrix(0.1, 0, 0, -0.1, 0, 2160)"/>
<path fill="none" stroke-width="10" stroke-linecap="butt" stroke-linejoin="miter" stroke="rgb(38.673401%, 79.164124%, 72.738647%)" stroke-opacity="1" stroke-miterlimit="10" d="M -3634.335938 4579.101562 C 995.703125 4691.796875 6294.921875 9274.6875 12019.21875 9404.296875 C 17018.710938 9517.5 19095.117188 641.09375 24171.914062 4874.6875 C 28756.71875 8698.085938 33740.78125 3135.390625 37362.695312 7737.8125 C 40306.992188 11479.21875 41221.71875 21053.515625 41824.492188 24468.90625 " transform="matrix(0.1, 0, 0, -0.1, 0, 2160)"/>
<path fill="none" stroke-width="10" stroke-linecap="butt" stroke-linejoin="miter" stroke="rgb(38.28125%, 79.150391%, 75.045776%)" stroke-opacity="1" stroke-miterlimit="10" d="M -3676.835938 4464.804688 C 844.140625 4720.898438 6143.046875 9421.40625 11930.195312 9512.304688 C 16950.898438 9591.210938 19099.882812 363.203125 24193.007812 4697.1875 C 28754.21875 8578.59375 33742.890625 3124.609375 37338.90625 7810.117188 C 40284.609375 11648.28125 41155.507812 21399.492188 41693.28125 24697.695312 " transform="matrix(0.1, 0, 0, -0.1, 0, 2160)"/>
<path fill="none" stroke-width="10" stroke-linecap="butt" stroke-linejoin="miter" stroke="rgb(37.890625%, 79.127502%, 77.194214%)" stroke-opacity="1" stroke-miterlimit="10" d="M -3719.296875 4350.507812 C 692.578125 4750.117188 5991.25 9568.515625 11841.09375 9620.390625 C 16883.203125 9665.117188 19105.390625 85 24213.984375 4519.609375 C 28752.109375 8459.101562 33744.296875 3113.515625 37315.117188 7882.382812 C 40261.484375 11817.5 41089.414062 21745.507812 41562.109375 24926.40625 " transform="matrix(0.1, 0, 0, -0.1, 0, 2160)"/>
<path fill="none" stroke-width="10" stroke-linecap="butt" stroke-linejoin="miter" stroke="rgb(37.5%, 79.109192%, 79.428101%)" stroke-opacity="1" stroke-miterlimit="10" d="M -3761.796875 4236.289062 C 541.015625 4779.21875 5839.53125 9715.898438 11752.109375 9728.398438 C 16815.507812 9739.21875 19111.484375 -193.59375 24235.117188 4342.109375 C 28750.585938 8339.414062 33745.195312 3102.304688 37291.289062 7954.6875 C 40237.8125 11986.796875 41023.28125 22091.484375 41430.898438 25155.117188 " transform="matrix(0.1, 0, 0, -0.1, 0, 2160)"/>
<path fill="none" stroke-width="10" stroke-linecap="butt" stroke-linejoin="miter" stroke="rgb(37.110901%, 79.107666%, 81.988525%)" stroke-opacity="1" stroke-miterlimit="10" d="M -3804.257812 4121.992188 C 389.453125 4808.28125 5687.929688 9863.515625 11663.007812 9836.484375 C 16748.007812 9813.515625 19118.203125 -472.382812 24256.09375 4164.492188 C 28749.414062 8219.6875 33745.507812 3090.898438 37267.382812 8026.992188 C 40213.515625 12156.015625 40957.109375 22437.382812 41299.609375 25383.789062 " transform="matrix(0.1, 0, 0, -0.1, 0, 2160)"/>
<path fill="none" stroke-width="10" stroke-linecap="butt" stroke-linejoin="miter" stroke="rgb(36.71875%, 79.090881%, 84.277344%)" stroke-opacity="1" stroke-miterlimit="10" d="M -3846.757812 4007.695312 C 237.890625 4837.5 5536.40625 10011.484375 11573.984375 9944.492188 C 16680.585938 9887.890625 19125.507812 -751.484375 24277.1875 3986.914062 C 28748.789062 8099.882812 33745.195312 3079.21875 37243.59375 8099.296875 C 40188.59375 12325.195312 40891.015625 22783.398438 41168.398438 25612.617188 " transform="matrix(0.1, 0, 0, -0.1, 0, 2160)"/>
<path fill="none" stroke-width="10" stroke-linecap="butt" stroke-linejoin="miter" stroke="rgb(36.523438%, 79.139709%, 86.599731%)" stroke-opacity="1" stroke-miterlimit="10" d="M -3889.257812 3893.515625 C 86.328125 4866.601562 5385 10159.6875 11484.882812 10052.617188 C 16613.28125 9962.5 19133.515625 -1030.78125 24298.203125 3809.414062 C 28748.515625 7980 33744.414062 3067.304688 37219.804688 8171.601562 C 40163.085938 12494.492188 40824.804688 23129.414062 41037.1875 25841.289062 " transform="matrix(0.1, 0, 0, -0.1, 0, 2160)"/>
<path fill="none" stroke-width="10" stroke-linecap="butt" stroke-linejoin="miter" stroke="rgb(36.71875%, 79.33197%, 89.353943%)" stroke-opacity="1" stroke-miterlimit="10" d="M -3931.71875 3779.21875 C -65.234375 4895.78125 5233.710938 10308.203125 11395.898438 10160.585938 C 16546.015625 10037.1875 19142.109375 -1310.390625 24319.296875 3631.796875 C 28748.789062 7860.195312 33743.085938 3055.117188 37196.015625 8243.984375 C 40137.109375 12663.710938 40758.710938 23475.390625 40906.015625 26070 " transform="matrix(0.1, 0, 0, -0.1, 0, 2160)"/>
<path fill="none" stroke-width="10" stroke-linecap="butt" stroke-linejoin="miter" stroke="rgb(36.71875%, 79.449463%, 91.844177%)" stroke-opacity="1" stroke-miterlimit="10" d="M -3974.21875 3664.882812 C -216.796875 4924.882812 5082.5 10456.992188 11306.796875 10268.710938 C 16478.90625 10112.1875 19151.210938 -1590.195312 24340.390625 3454.296875 C 28749.414062 7740.3125 33741.289062 3042.695312 37172.1875 8316.289062 C 40110.585938 12832.8125 40692.617188 23821.40625 40774.804688 26298.710938 " transform="matrix(0.1, 0, 0, -0.1, 0, 2160)"/>
<path fill="none" stroke-width="10" stroke-linecap="butt" stroke-linejoin="miter" stroke="rgb(36.523438%, 79.481506%, 93.812561%)" stroke-opacity="1" stroke-miterlimit="10" d="M -4016.71875 3550.703125 C -368.398438 4954.101562 4931.445312 10606.09375 11217.8125 10376.71875 C 16411.914062 10187.1875 19161.015625 -1870.195312 24361.40625 3276.71875 C 28750.390625 7620.507812 33738.984375 3029.882812 37148.398438 8388.59375 C 40083.59375 13001.914062 40626.40625 24167.304688 40643.59375 26527.382812 " transform="matrix(0.1, 0, 0, -0.1, 0, 2160)"/>
<path fill="none" stroke-width="10" stroke-linecap="butt" stroke-linejoin="miter" stroke="rgb(36.328125%, 79.518127%, 95.903015%)" stroke-opacity="1" stroke-miterlimit="10" d="M -4059.179688 3436.40625 C -519.960938 4983.203125 4781.054688 10763.710938 11128.710938 10484.804688 C 16345.507812 10269.296875 19171.40625 -2150.3125 24382.5 3099.101562 C 28751.914062 7500.703125 33736.289062 3016.914062 37124.609375 8460.898438 C 40056.09375 13171.015625 40560.3125 24513.28125 40512.382812 26756.210938 " transform="matrix(0.1, 0, 0, -0.1, 0, 2160)"/>
<path fill="none" stroke-width="10" stroke-linecap="butt" stroke-linejoin="miter" stroke="rgb(37.110901%, 79.774475%, 96.055603%)" stroke-opacity="1" stroke-miterlimit="10" d="M -4101.679688 3322.109375 C -671.523438 5012.304688 4629.609375 10905 11039.6875 10592.8125 C 16278.203125 10337.695312 19182.304688 -2430.585938 24403.515625 2921.601562 C 28753.710938 7380.898438 33733.085938 3003.710938 37100.703125 8533.203125 C 40028.203125 13339.882812 40494.21875 24859.296875 40381.210938 26984.882812 " transform="matrix(0.1, 0, 0, -0.1, 0, 2160)"/>
</svg>
